<?xml version="1.0" encoding="UTF-8" standalone="no"?>
<svg
   data-name="Layer 1"
   viewBox="0 0 24 24"
   id="bell"
   version="1.1"
   sodipodi:docname="bell.svg"
   inkscape:version="1.3 (0e150ed6c4, 2023-07-21)"
   xmlns:inkscape="http://www.inkscape.org/namespaces/inkscape"
   xmlns:sodipodi="http://sodipodi.sourceforge.net/DTD/sodipodi-0.dtd"
   xmlns="http://www.w3.org/2000/svg"
   xmlns:svg="http://www.w3.org/2000/svg">
  <defs
     id="defs1" />
  <sodipodi:namedview
     id="namedview1"
     pagecolor="#505050"
     bordercolor="#ffffff"
     borderopacity="1"
     inkscape:showpageshadow="0"
     inkscape:pageopacity="0"
     inkscape:pagecheckerboard="1"
     inkscape:deskcolor="#505050"
     inkscape:zoom="46.791667"
     inkscape:cx="12"
     inkscape:cy="12"
     inkscape:window-width="1796"
     inkscape:window-height="1355"
     inkscape:window-x="26"
     inkscape:window-y="23"
     inkscape:window-maximized="0"
     inkscape:current-layer="bell" />
  <path
     fill="#6563FF"
     d="M18,13.18V10a6,6,0,0,0-5-5.91V3a1,1,0,0,0-2,0V4.09A6,6,0,0,0,6,10v3.18A3,3,0,0,0,4,16v2a1,1,0,0,0,1,1H8.14a4,4,0,0,0,7.72,0H19a1,1,0,0,0,1-1V16A3,3,0,0,0,18,13.18ZM8,10a4,4,0,0,1,8,0v3H8Zm4,10a2,2,0,0,1-1.72-1h3.44A2,2,0,0,1,12,20Zm6-3H6V16a1,1,0,0,1,1-1H17a1,1,0,0,1,1,1Z"
     id="path1"
     style="fill:#000000" />
</svg>
