<?xml version="1.0" encoding="UTF-8" standalone="no"?>
<svg
   viewBox="0 0 24 24"
   id="books"
   version="1.1"
   sodipodi:docname="books.svg"
   inkscape:version="1.3 (0e150ed6c4, 2023-07-21)"
   xmlns:inkscape="http://www.inkscape.org/namespaces/inkscape"
   xmlns:sodipodi="http://sodipodi.sourceforge.net/DTD/sodipodi-0.dtd"
   xmlns="http://www.w3.org/2000/svg"
   xmlns:svg="http://www.w3.org/2000/svg">
  <defs
     id="defs1" />
  <sodipodi:namedview
     id="namedview1"
     pagecolor="#505050"
     bordercolor="#ffffff"
     borderopacity="1"
     inkscape:showpageshadow="0"
     inkscape:pageopacity="0"
     inkscape:pagecheckerboard="1"
     inkscape:deskcolor="#505050"
     inkscape:zoom="46.791667"
     inkscape:cx="12"
     inkscape:cy="12"
     inkscape:window-width="1068"
     inkscape:window-height="1355"
     inkscape:window-x="26"
     inkscape:window-y="23"
     inkscape:window-maximized="0"
     inkscape:current-layer="books" />
  <path
     fill="#6563FF"
     d="M22.47,18.82l-1-3.86h0L18.32,3.37a1,1,0,0,0-1.22-.71l-3.87,1a1,1,0,0,0-.73-.33H2.5a1,1,0,0,0-1,1v16a1,1,0,0,0,1,1h10a1,1,0,0,0,1-1v-8l2.2,8.22a1,1,0,0,0,1,.74,1.15,1.15,0,0,0,.26,0l4.83-1.29a1,1,0,0,0,.61-.47A1.05,1.05,0,0,0,22.47,18.82Zm-16,.55h-3v-2h3Zm0-4h-3v-6h3Zm0-8h-3v-2h3Zm5,12h-3v-2h3Zm0-4h-3v-6h3Zm0-8h-3v-2h3Zm2.25-1.74,2.9-.78.52,1.93-2.9.78Zm2.59,9.66-1.55-5.8,2.9-.78,1.55,5.8Zm1,3.86-.52-1.93,2.9-.78.52,1.93Z"
     id="path1"
     style="fill:#000000" />
</svg>
