<?xml version="1.0" encoding="UTF-8" standalone="no"?>
<svg
   viewBox="0 0 24 24"
   id="clipboard-notes"
   version="1.1"
   sodipodi:docname="clipboard-notes.svg"
   inkscape:version="1.3 (0e150ed6c4, 2023-07-21)"
   xmlns:inkscape="http://www.inkscape.org/namespaces/inkscape"
   xmlns:sodipodi="http://sodipodi.sourceforge.net/DTD/sodipodi-0.dtd"
   xmlns="http://www.w3.org/2000/svg"
   xmlns:svg="http://www.w3.org/2000/svg">
  <defs
     id="defs1" />
  <sodipodi:namedview
     id="namedview1"
     pagecolor="#505050"
     bordercolor="#ffffff"
     borderopacity="1"
     inkscape:showpageshadow="0"
     inkscape:pageopacity="0"
     inkscape:pagecheckerboard="1"
     inkscape:deskcolor="#505050"
     inkscape:zoom="46.791667"
     inkscape:cx="12"
     inkscape:cy="12"
     inkscape:window-width="1068"
     inkscape:window-height="1355"
     inkscape:window-x="26"
     inkscape:window-y="23"
     inkscape:window-maximized="0"
     inkscape:current-layer="clipboard-notes" />
  <path
     fill="#6563FF"
     d="M13,14H9a1,1,0,0,0,0,2h4a1,1,0,0,0,0-2ZM17,4H15.82A3,3,0,0,0,13,2H11A3,3,0,0,0,8.18,4H7A3,3,0,0,0,4,7V19a3,3,0,0,0,3,3H17a3,3,0,0,0,3-3V7A3,3,0,0,0,17,4ZM10,5a1,1,0,0,1,1-1h2a1,1,0,0,1,1,1V6H10Zm8,14a1,1,0,0,1-1,1H7a1,1,0,0,1-1-1V7A1,1,0,0,1,7,6H8V7A1,1,0,0,0,9,8h6a1,1,0,0,0,1-1V6h1a1,1,0,0,1,1,1Zm-3-9H9a1,1,0,0,0,0,2h6a1,1,0,0,0,0-2Z"
     id="path1"
     style="fill:#000000" />
</svg>
