<svg width="22" height="20" viewBox="0 0 22 20" fill="none" xmlns="http://www.w3.org/2000/svg">
<path d="M21.765 16.8592L20.7648 12.9992L17.615 1.40918C17.547 1.15351 17.3805 0.935213 17.1518 0.802133C16.9231 0.669054 16.6511 0.632128 16.3952 0.699248L12.5247 1.69915C12.4324 1.59682 12.32 1.51475 12.1944 1.45797C12.0688 1.40119 11.9327 1.371 11.7949 1.36927H1.79517C1.66384 1.36926 1.53357 1.39503 1.41223 1.44528C1.2909 1.49553 1.18076 1.56926 1.08789 1.66212C0.995025 1.75499 0.921305 1.86525 0.871048 1.98658C0.82079 2.10791 0.794919 2.23796 0.794922 2.36929V18.3692C0.794924 18.5005 0.820788 18.6306 0.871048 18.7519C0.921307 18.8732 0.995026 18.9835 1.08789 19.0763C1.18076 19.1692 1.2909 19.2428 1.41223 19.2931C1.53356 19.3433 1.66384 19.3692 1.79517 19.3692H11.7949C11.9262 19.3692 12.0565 19.3433 12.1778 19.2931C12.2991 19.2428 12.4093 19.1692 12.5021 19.0763C12.595 18.9835 12.6687 18.8732 12.719 18.7519C12.7692 18.6306 12.7951 18.5005 12.7951 18.3692V10.3692L14.9949 18.5893C15.0535 18.8074 15.1843 18.9992 15.3658 19.1336C15.5474 19.2679 15.769 19.337 15.9947 19.3293C16.0813 19.3392 16.1687 19.3392 16.2554 19.3293L21.0859 18.0393C21.2136 18.0052 21.3332 17.946 21.4379 17.8654C21.5426 17.7847 21.6303 17.6839 21.6958 17.5692C21.8019 17.3482 21.8247 17.097 21.765 16.8592ZM5.76524 17.4092H2.76496V15.4092H5.76524V17.4092ZM5.76524 13.4092H2.76496V7.40927H5.76524V13.4092ZM5.76524 5.40924H2.76496V3.40921H5.76524V5.40924ZM10.7651 17.4092H7.76481V15.4092H10.7651V17.4092ZM10.7651 13.4092H7.76481V7.40927H10.7651V13.4092ZM10.7651 5.40924H7.76481V3.40921H10.7651V5.40924ZM13.0152 3.66919L15.9149 2.88925L16.4353 4.81927L13.5351 5.59921L13.0152 3.66919ZM15.6053 13.3292L14.0546 7.52923L16.9548 6.74917L18.505 12.5491L15.6053 13.3292ZM16.6046 17.1892L16.0851 15.2592L18.9848 14.4792L19.5048 16.4092L16.6046 17.1892Z" fill="black"/>
</svg>
