<?xml version="1.0" encoding="UTF-8" standalone="no"?>
<svg
   viewBox="0 0 24 24"
   id="exclamation-triangle"
   version="1.1"
   sodipodi:docname="exclamation-triangle.svg"
   inkscape:version="1.3 (0e150ed6c4, 2023-07-21)"
   xmlns:inkscape="http://www.inkscape.org/namespaces/inkscape"
   xmlns:sodipodi="http://sodipodi.sourceforge.net/DTD/sodipodi-0.dtd"
   xmlns="http://www.w3.org/2000/svg"
   xmlns:svg="http://www.w3.org/2000/svg">
  <defs
     id="defs1" />
  <sodipodi:namedview
     id="namedview1"
     pagecolor="#505050"
     bordercolor="#ffffff"
     borderopacity="1"
     inkscape:showpageshadow="0"
     inkscape:pageopacity="0"
     inkscape:pagecheckerboard="1"
     inkscape:deskcolor="#505050"
     inkscape:zoom="46.791667"
     inkscape:cx="12.010686"
     inkscape:cy="12"
     inkscape:window-width="775"
     inkscape:window-height="655"
     inkscape:window-x="26"
     inkscape:window-y="23"
     inkscape:window-maximized="0"
     inkscape:current-layer="exclamation-triangle" />
  <path
     fill="#6563FF"
     d="M12,16a1,1,0,1,0,1,1A1,1,0,0,0,12,16Zm10.67,1.47-8.05-14a3,3,0,0,0-5.24,0l-8,14A3,3,0,0,0,3.94,22H20.06a3,3,0,0,0,2.61-4.53Zm-1.73,2a1,1,0,0,1-.88.51H3.94a1,1,0,0,1-.88-.51,1,1,0,0,1,0-1l8-14a1,1,0,0,1,1.78,0l8.05,14A1,1,0,0,1,20.94,19.49ZM12,8a1,1,0,0,0-1,1v4a1,1,0,0,0,2,0V9A1,1,0,0,0,12,8Z"
     id="path1"
     style="fill:#000000" />
</svg>
