<?xml version="1.0" encoding="UTF-8" standalone="no"?>
<svg
   viewBox="0 0 24 24"
   id="thumbs-up"
   version="1.1"
   sodipodi:docname="thumbs-up.svg"
   inkscape:version="1.3 (0e150ed6c4, 2023-07-21)"
   xmlns:inkscape="http://www.inkscape.org/namespaces/inkscape"
   xmlns:sodipodi="http://sodipodi.sourceforge.net/DTD/sodipodi-0.dtd"
   xmlns="http://www.w3.org/2000/svg"
   xmlns:svg="http://www.w3.org/2000/svg">
  <defs
     id="defs1" />
  <sodipodi:namedview
     id="namedview1"
     pagecolor="#505050"
     bordercolor="#ffffff"
     borderopacity="1"
     inkscape:showpageshadow="0"
     inkscape:pageopacity="0"
     inkscape:pagecheckerboard="1"
     inkscape:deskcolor="#505050"
     inkscape:zoom="46.791667"
     inkscape:cx="12"
     inkscape:cy="12"
     inkscape:window-width="1068"
     inkscape:window-height="1355"
     inkscape:window-x="26"
     inkscape:window-y="23"
     inkscape:window-maximized="0"
     inkscape:current-layer="thumbs-up" />
  <path
     fill="#6563FF"
     d="M21.3,10.08A3,3,0,0,0,19,9H14.44L15,7.57A4.13,4.13,0,0,0,11.11,2a1,1,0,0,0-.91.59L7.35,9H5a3,3,0,0,0-3,3v7a3,3,0,0,0,3,3H17.73a3,3,0,0,0,2.95-2.46l1.27-7A3,3,0,0,0,21.3,10.08ZM7,20H5a1,1,0,0,1-1-1V12a1,1,0,0,1,1-1H7Zm13-7.82-1.27,7a1,1,0,0,1-1,.82H9V10.21l2.72-6.12A2.11,2.11,0,0,1,13.1,6.87L12.57,8.3A2,2,0,0,0,14.44,11H19a1,1,0,0,1,.77.36A1,1,0,0,1,20,12.18Z"
     id="path1"
     style="fill:#000000" />
</svg>
