<?xml version="1.0" encoding="UTF-8" standalone="no"?>
<svg
   viewBox="0 0 24 24"
   id="user-square"
   version="1.1"
   sodipodi:docname="user-square.svg"
   inkscape:version="1.3 (0e150ed6c4, 2023-07-21)"
   xmlns:inkscape="http://www.inkscape.org/namespaces/inkscape"
   xmlns:sodipodi="http://sodipodi.sourceforge.net/DTD/sodipodi-0.dtd"
   xmlns="http://www.w3.org/2000/svg"
   xmlns:svg="http://www.w3.org/2000/svg">
  <defs
     id="defs1" />
  <sodipodi:namedview
     id="namedview1"
     pagecolor="#505050"
     bordercolor="#ffffff"
     borderopacity="1"
     inkscape:showpageshadow="0"
     inkscape:pageopacity="0"
     inkscape:pagecheckerboard="1"
     inkscape:deskcolor="#505050"
     inkscape:zoom="46.791667"
     inkscape:cx="12.010686"
     inkscape:cy="12"
     inkscape:window-width="775"
     inkscape:window-height="655"
     inkscape:window-x="26"
     inkscape:window-y="23"
     inkscape:window-maximized="0"
     inkscape:current-layer="user-square" />
  <path
     fill="#6563FF"
     d="M14.81,12.28a3.73,3.73,0,0,0,1-2.5,3.78,3.78,0,0,0-7.56,0,3.73,3.73,0,0,0,1,2.5A5.94,5.94,0,0,0,6,16.89a1,1,0,0,0,2,.22,4,4,0,0,1,7.94,0A1,1,0,0,0,17,18h.11a1,1,0,0,0,.88-1.1A5.94,5.94,0,0,0,14.81,12.28ZM12,11.56a1.78,1.78,0,1,1,1.78-1.78A1.78,1.78,0,0,1,12,11.56ZM19,2H5A3,3,0,0,0,2,5V19a3,3,0,0,0,3,3H19a3,3,0,0,0,3-3V5A3,3,0,0,0,19,2Zm1,17a1,1,0,0,1-1,1H5a1,1,0,0,1-1-1V5A1,1,0,0,1,5,4H19a1,1,0,0,1,1,1Z"
     id="path1"
     style="fill:#000000" />
</svg>
