<?xml version="1.0" encoding="UTF-8" standalone="no"?>
<svg
   viewBox="0 0 24 24"
   id="bookmark"
   version="1.1"
   sodipodi:docname="bookmark.svg"
   inkscape:version="1.3 (0e150ed6c4, 2023-07-21)"
   xmlns:inkscape="http://www.inkscape.org/namespaces/inkscape"
   xmlns:sodipodi="http://sodipodi.sourceforge.net/DTD/sodipodi-0.dtd"
   xmlns="http://www.w3.org/2000/svg"
   xmlns:svg="http://www.w3.org/2000/svg">
  <defs
     id="defs1" />
  <sodipodi:namedview
     id="namedview1"
     pagecolor="#505050"
     bordercolor="#ffffff"
     borderopacity="1"
     inkscape:showpageshadow="0"
     inkscape:pageopacity="0"
     inkscape:pagecheckerboard="1"
     inkscape:deskcolor="#505050"
     inkscape:zoom="46.791667"
     inkscape:cx="12"
     inkscape:cy="12"
     inkscape:window-width="1700"
     inkscape:window-height="1355"
     inkscape:window-x="26"
     inkscape:window-y="23"
     inkscape:window-maximized="0"
     inkscape:current-layer="bookmark" />
  <path
     fill="#6563FF"
     d="M16,2H8A3,3,0,0,0,5,5V21a1,1,0,0,0,.5.87,1,1,0,0,0,1,0L12,18.69l5.5,3.18A1,1,0,0,0,18,22a1,1,0,0,0,.5-.13A1,1,0,0,0,19,21V5A3,3,0,0,0,16,2Zm1,17.27-4.5-2.6a1,1,0,0,0-1,0L7,19.27V5A1,1,0,0,1,8,4h8a1,1,0,0,1,1,1Z"
     id="path1"
     style="fill:#000000" />
</svg>
