<svg width="15" height="21" viewBox="0 0 15 21" fill="none" xmlns="http://www.w3.org/2000/svg">
<path id="path150459" d="M11.1796 0.849487H3.17997C2.78599 0.849462 2.39609 0.926996 2.03209 1.07775C1.66809 1.2285 1.3372 1.44947 1.0586 1.72805C0.780006 2.00663 0.558849 2.33743 0.408073 2.70142C0.257297 3.06541 0.179695 3.45544 0.179695 3.84942V19.8494C0.178997 20.0256 0.22476 20.199 0.312569 20.3517C0.400378 20.5045 0.527207 20.6314 0.679818 20.7195C0.831845 20.8072 1.00439 20.8535 1.17994 20.8535C1.35549 20.8535 1.52804 20.8072 1.68006 20.7195L7.18003 17.5395L12.68 20.7195C12.8324 20.8059 13.0045 20.8507 13.1797 20.8494C13.3549 20.8507 13.5274 20.8059 13.6798 20.7195C13.8324 20.6314 13.9592 20.5045 14.047 20.3517C14.1348 20.199 14.1806 20.0256 14.1799 19.8494V3.84942C14.1799 3.45544 14.1023 3.06541 13.9515 2.70142C13.8008 2.33743 13.5796 2.00663 13.301 1.72805C13.0224 1.44947 12.692 1.2285 12.328 1.07775C11.964 0.926996 11.5736 0.849462 11.1796 0.849487ZM12.1799 18.1194L7.6797 15.5194C7.52767 15.4316 7.35558 15.3855 7.18003 15.3855C7.00448 15.3855 6.83194 15.4316 6.67991 15.5194L2.17973 18.1194V3.84942C2.17972 3.71809 2.20559 3.58805 2.25585 3.46671C2.30611 3.34538 2.37983 3.23512 2.47269 3.14226C2.56556 3.04939 2.6757 2.97578 2.79704 2.92553C2.91837 2.87528 3.04864 2.84939 3.17997 2.8494H11.1796C11.311 2.84939 11.4412 2.87528 11.5626 2.92553C11.6839 2.97578 11.794 3.04939 11.8869 3.14226C11.9798 3.23512 12.0535 3.34538 12.1038 3.46671C12.154 3.58805 12.1799 3.71809 12.1799 3.84942V18.1194Z" fill="black"/>
</svg>
