<svg width="17" height="21" viewBox="0 0 17 21" fill="none" xmlns="http://www.w3.org/2000/svg">
<path id="path150467" d="M16.8855 10.8515C16.8855 10.7202 16.8596 10.5901 16.8094 10.4688C16.7591 10.3474 16.6854 10.2372 16.5925 10.1443C16.4997 10.0515 16.3895 9.97784 16.2682 9.92759C16.1469 9.87734 16.0166 9.85146 15.8853 9.85146H8.29529L10.5952 7.56146C10.6891 7.46837 10.7634 7.35761 10.8144 7.23562C10.8653 7.11363 10.892 6.98282 10.8923 6.85061C10.8926 6.7184 10.8667 6.58734 10.8162 6.46514C10.7657 6.34293 10.6915 6.23198 10.598 6.13849C10.5045 6.045 10.3935 5.97085 10.2713 5.92038C10.1491 5.86991 10.0183 5.84409 9.88608 5.84437C9.75387 5.84464 9.62283 5.87101 9.50084 5.92199C9.37885 5.97297 9.26821 6.04761 9.17512 6.14149L5.17505 10.1414C5.08343 10.2364 5.01184 10.3486 4.96375 10.4714C4.86373 10.7149 4.86373 10.988 4.96375 11.2314C5.01184 11.3543 5.08343 11.4664 5.17505 11.5613L9.17512 15.5614C9.26808 15.6551 9.37852 15.7295 9.50038 15.7803C9.62224 15.831 9.75315 15.8572 9.88516 15.8572C10.0172 15.8572 10.1476 15.831 10.2695 15.7803C10.3913 15.7295 10.5022 15.6551 10.5952 15.5614C10.6889 15.4684 10.7631 15.3578 10.8139 15.236C10.8647 15.1141 10.8909 14.9834 10.8909 14.8514C10.8909 14.7194 10.8647 14.5886 10.8139 14.4668C10.7631 14.3449 10.6889 14.2343 10.5952 14.1414L8.29529 11.8514H15.8853C16.0166 11.8514 16.1469 11.8255 16.2682 11.7753C16.3895 11.725 16.4997 11.6514 16.5925 11.5585C16.6854 11.4657 16.7591 11.3554 16.8094 11.2341C16.8596 11.1127 16.8855 10.9828 16.8855 10.8515ZM13.8852 0.85144H3.88507C3.49109 0.851416 3.10118 0.929065 2.73719 1.07982C2.37319 1.23057 2.04229 1.45154 1.7637 1.73012C1.4851 2.00869 1.26441 2.33938 1.11363 2.70337C0.962855 3.06736 0.885254 3.45751 0.885254 3.85149V17.8515C0.885254 18.2455 0.962855 18.6355 1.11363 18.9995C1.26441 19.3635 1.4851 19.6943 1.7637 19.9728C2.04229 20.2514 2.37319 20.4724 2.73719 20.6231C3.10118 20.7739 3.49109 20.8514 3.88507 20.8514H13.8852C14.2792 20.8514 14.6691 20.7739 15.0331 20.6231C15.3971 20.4724 15.728 20.2514 16.0066 19.9728C16.2852 19.6943 16.5063 19.3635 16.6571 18.9995C16.8079 18.6355 16.8855 18.2455 16.8855 17.8515V14.8514C16.8855 14.5862 16.7801 14.3318 16.5925 14.1443C16.405 13.9567 16.1505 13.8514 15.8853 13.8514C15.62 13.8514 15.3655 13.9567 15.178 14.1443C14.9904 14.3318 14.885 14.5862 14.885 14.8514V17.8515C14.885 17.9828 14.8591 18.1128 14.8089 18.2342C14.7586 18.3555 14.6854 18.4657 14.5925 18.5585C14.4996 18.6514 14.389 18.7251 14.2677 18.7754C14.1464 18.8256 14.0166 18.8515 13.8852 18.8515H3.88507C3.75374 18.8515 3.62393 18.8256 3.5026 18.7754C3.38126 18.7251 3.27112 18.6514 3.17825 18.5585C3.08539 18.4657 3.01167 18.3555 2.96141 18.2342C2.91115 18.1128 2.88528 17.9828 2.88528 17.8515V3.85149C2.88528 3.72016 2.91115 3.59011 2.96141 3.46878C3.01167 3.34745 3.08539 3.23719 3.17825 3.14432C3.27112 3.05146 3.38126 2.97773 3.5026 2.92748C3.62393 2.87723 3.75374 2.85146 3.88507 2.85147H13.8852C14.0166 2.85146 14.1464 2.87723 14.2677 2.92748C14.389 2.97773 14.4996 3.05146 14.5925 3.14432C14.6854 3.23719 14.7586 3.34745 14.8089 3.46878C14.8591 3.59011 14.885 3.72016 14.885 3.85149V6.85142C14.885 7.11665 14.9904 7.37103 15.178 7.55858C15.3655 7.74613 15.62 7.85155 15.8853 7.85155C16.1505 7.85155 16.405 7.74613 16.5925 7.55858C16.7801 7.37103 16.8855 7.11665 16.8855 6.85142V3.85149C16.8855 3.45751 16.8079 3.06736 16.6571 2.70337C16.5063 2.33938 16.2852 2.00869 16.0066 1.73012C15.728 1.45154 15.3971 1.23057 15.0331 1.07982C14.6691 0.929065 14.2792 0.851416 13.8852 0.85144Z" fill="black"/>
</svg>
