<?xml version="1.0" encoding="UTF-8" standalone="no"?>
<svg
   viewBox="0 0 24 24"
   id="map-pin-alt"
   version="1.1"
   sodipodi:docname="map-pin-alt.svg"
   inkscape:version="1.3 (0e150ed6c4, 2023-07-21)"
   xmlns:inkscape="http://www.inkscape.org/namespaces/inkscape"
   xmlns:sodipodi="http://sodipodi.sourceforge.net/DTD/sodipodi-0.dtd"
   xmlns="http://www.w3.org/2000/svg"
   xmlns:svg="http://www.w3.org/2000/svg">
  <defs
     id="defs1" />
  <sodipodi:namedview
     id="namedview1"
     pagecolor="#505050"
     bordercolor="#ffffff"
     borderopacity="1"
     inkscape:showpageshadow="0"
     inkscape:pageopacity="0"
     inkscape:pagecheckerboard="1"
     inkscape:deskcolor="#505050"
     inkscape:zoom="46.791667"
     inkscape:cx="12"
     inkscape:cy="12"
     inkscape:window-width="1068"
     inkscape:window-height="1355"
     inkscape:window-x="26"
     inkscape:window-y="23"
     inkscape:window-maximized="0"
     inkscape:current-layer="map-pin-alt" />
  <path
     fill="#6563FF"
     d="M11,11.9V17a1,1,0,0,0,2,0V11.9a5,5,0,1,0-2,0ZM12,4A3,3,0,1,1,9,7,3,3,0,0,1,12,4Zm4.21,10.42a1,1,0,1,0-.42,2C18.06,16.87,19,17.68,19,18c0,.58-2.45,2-7,2s-7-1.42-7-2c0-.32.94-1.13,3.21-1.62a1,1,0,1,0-.42-2C4.75,15.08,3,16.39,3,18c0,2.63,4.53,4,9,4s9-1.37,9-4C21,16.39,19.25,15.08,16.21,14.42Z"
     id="path1"
     style="fill:#000000" />
</svg>
