<?xml version="1.0" encoding="UTF-8" standalone="no"?>
<svg
   viewBox="0 0 24 24"
   id="video"
   version="1.1"
   sodipodi:docname="video.svg"
   inkscape:version="1.3 (0e150ed6c4, 2023-07-21)"
   xmlns:inkscape="http://www.inkscape.org/namespaces/inkscape"
   xmlns:sodipodi="http://sodipodi.sourceforge.net/DTD/sodipodi-0.dtd"
   xmlns="http://www.w3.org/2000/svg"
   xmlns:svg="http://www.w3.org/2000/svg">
  <defs
     id="defs1" />
  <sodipodi:namedview
     id="namedview1"
     pagecolor="#505050"
     bordercolor="#ffffff"
     borderopacity="1"
     inkscape:showpageshadow="0"
     inkscape:pageopacity="0"
     inkscape:pagecheckerboard="1"
     inkscape:deskcolor="#505050"
     inkscape:zoom="46.791667"
     inkscape:cx="12"
     inkscape:cy="12"
     inkscape:window-width="2160"
     inkscape:window-height="1371"
     inkscape:window-x="0"
     inkscape:window-y="0"
     inkscape:window-maximized="1"
     inkscape:current-layer="video" />
  <path
     fill="#6563FF"
     d="M21.53,7.15a1,1,0,0,0-1,0L17,8.89A3,3,0,0,0,14,6H5A3,3,0,0,0,2,9v6a3,3,0,0,0,3,3h9a3,3,0,0,0,3-2.89l3.56,1.78A1,1,0,0,0,21,17a1,1,0,0,0,.53-.15A1,1,0,0,0,22,16V8A1,1,0,0,0,21.53,7.15ZM15,15a1,1,0,0,1-1,1H5a1,1,0,0,1-1-1V9A1,1,0,0,1,5,8h9a1,1,0,0,1,1,1Zm5-.62-3-1.5V11.12l3-1.5Z"
     id="path1"
     style="fill:#000000" />
</svg>
